<svg width="93" height="41" viewBox="0 0 93 41" fill="none" xmlns="http://www.w3.org/2000/svg">
<path d="M14.7927 23.4504C34.5035 18.4171 34.2897 7.21335 33.5605 2.04936C33.5383 1.90947 33.4729 1.78196 33.3681 1.67437C33.2633 1.56678 33.1212 1.4813 32.9502 1.42298C32.7792 1.36467 32.5828 1.3347 32.3727 1.33486C32.1625 1.33502 31.9428 1.3653 31.7267 1.42391C3.77065 8.9081 5.2297 17.6529 6.54826 25.5557L7.25688 29.8028" fill="white"/>
<path d="M14.7927 23.4504C34.5035 18.4171 34.2897 7.21335 33.5605 2.04936C33.5383 1.90947 33.4729 1.78196 33.3681 1.67437C33.2633 1.56678 33.1212 1.4813 32.9502 1.42298C32.7792 1.36467 32.5828 1.3347 32.3727 1.33486C32.1625 1.33502 31.9428 1.3653 31.7267 1.42391C3.77065 8.9081 5.2297 17.6529 6.54826 25.5557L7.25688 29.8028" stroke="#2F2611" stroke-width="1.32973" stroke-linecap="round" stroke-linejoin="round"/>
<path d="M6.41627 25.5258C6.41627 25.5258 5.35216 19.1411 18.3982 14.6996L6.41627 25.5258Z" fill="white"/>
<path d="M6.41627 25.5258C6.41627 25.5258 5.35216 19.1411 18.3982 14.6996" stroke="#2F2611" stroke-width="1.32973" stroke-linecap="round" stroke-linejoin="round"/>
<path d="M19.0133 28.0676C19.7609 28.8152 20.1347 29.9041 20.1347 31.3343V39.5011H16.7461V34.0403C16.7461 32.6101 16.6892 31.6675 16.5754 31.2124C16.4454 30.7736 16.2341 30.4486 15.9416 30.2373C15.6653 30.0098 15.3159 29.896 14.8933 29.896C14.3245 29.896 13.8369 30.0829 13.4306 30.4567C13.0243 30.8467 12.7399 31.3831 12.5774 32.0657C12.4961 32.4232 12.4555 33.2277 12.4555 34.4791V39.5011H9.04251V28.3601L8.21365 27.6044L12.2848 26.7024V28.1651C12.9187 27.6776 13.5119 27.32 14.0645 27.0925C14.6333 26.8649 15.2265 26.7512 15.8441 26.7512C17.0955 26.7512 18.1519 27.19 19.0133 28.0676ZM33.3209 33.4065V34.1378H23.8377C23.984 34.8367 24.309 35.3974 24.8128 35.8199C25.3817 36.2912 26.1049 36.5269 26.9825 36.5269C28.0389 36.5269 28.949 36.1531 29.7129 35.4055L29.8104 35.308L32.6383 36.6488L32.492 36.8194C31.8582 37.7296 31.0943 38.404 30.2005 38.8429C29.3066 39.2817 28.2421 39.5011 27.0069 39.5011C25.1054 39.5011 23.5533 38.8997 22.3506 37.6971C21.148 36.4944 20.5466 34.9829 20.5466 33.1627C20.5466 31.3099 21.1398 29.7741 22.3263 28.5552C23.5289 27.32 25.0404 26.7024 26.8606 26.7024C28.7621 26.7024 30.3142 27.32 31.5169 28.5552C32.7196 29.7741 33.3209 31.3912 33.3209 33.4065ZM24.0327 31.4318H29.9079C29.6966 30.928 29.3554 30.5054 28.884 30.1641C28.3477 29.7741 27.722 29.5791 27.0069 29.5791C26.2105 29.5791 25.5198 29.7985 24.9347 30.2373C24.6097 30.4811 24.309 30.8792 24.0327 31.4318ZM47.4143 26.8731V26.8487H50.8516L46.2441 39.5011H44.0257L41.5391 32.8458L38.9794 39.5011H36.7853L32.2265 26.8487H35.6395L37.9798 33.4796L40.5152 26.8487H42.6117L45.0739 33.3821L47.0974 27.7263L46.3416 26.8243L47.4143 26.8487V26.8731ZM54.1806 23.3626V39.5011H50.9627V23.7283L50.1094 22.9481L54.1806 22.0218V23.3626ZM67.5344 33.4065V34.1378H58.0512C58.1975 34.8367 58.5226 35.3974 59.0264 35.8199C59.5952 36.2912 60.3184 36.5269 61.1961 36.5269C62.2525 36.5269 63.1626 36.1531 63.9264 35.4055L64.0239 35.308L66.8518 36.6488L66.7056 36.8194C66.0717 37.7296 65.3079 38.404 64.414 38.8429C63.5201 39.2817 62.4556 39.5011 61.2204 39.5011C59.3189 39.5011 57.7668 38.8997 56.5642 37.6971C55.3615 36.4944 54.7602 34.9829 54.7602 33.1627C54.7602 31.3099 55.3534 29.7741 56.5398 28.5552C57.7425 27.32 59.2539 26.7024 61.0742 26.7024C62.9757 26.7024 64.5278 27.32 65.7304 28.5552C66.9331 29.7741 67.5344 31.3912 67.5344 33.4065ZM58.2463 31.4318H64.1215C63.9102 30.928 63.5689 30.5054 63.0976 30.1641C62.5612 29.7741 61.9355 29.5791 61.2204 29.5791C60.4241 29.5791 59.7334 29.7985 59.1483 30.2373C58.8232 30.4811 58.5226 30.8792 58.2463 31.4318ZM78.0769 38.4528L78.9302 38.6234L78.4182 39.0379L77.9063 39.5011H74.8346V38.3797C74.087 38.9322 73.2013 39.2817 72.1774 39.4279C71.1697 39.5742 70.2759 39.4686 69.4958 39.111C68.1793 38.4934 67.5536 37.372 67.6186 35.7468C67.6349 34.6416 68.0005 33.7559 68.7156 33.0896C69.8208 32.0494 71.8361 31.5943 74.7615 31.7244C74.8102 30.928 74.6152 30.3673 74.1764 30.0423C73.9001 29.8472 73.5344 29.7335 73.0794 29.701C72.6406 29.6522 72.1692 29.6847 71.6654 29.7985C71.1779 29.896 70.7147 30.0179 70.2759 30.1641C69.8371 30.2942 69.4226 30.4404 69.0326 30.603L68.8375 30.7005L68.1793 27.7019L68.3256 27.6288C68.6506 27.515 68.9919 27.4094 69.3495 27.3119C69.7233 27.2144 70.2434 27.0925 70.9097 26.9462C71.576 26.7999 72.218 26.7349 72.8356 26.7512C73.4694 26.7512 74.1114 26.8081 74.7615 26.9218C75.4116 27.0193 75.9967 27.2712 76.5167 27.6776C77.0531 28.0676 77.4675 28.5796 77.76 29.2134C78.0526 29.701 78.1663 31.9925 78.1013 36.0881C78.0851 37.3558 78.0769 38.144 78.0769 38.4528ZM74.8346 35.2836V34.2841C74.6233 34.2841 74.4202 34.2841 74.2252 34.2841C73.8676 34.2678 73.6482 34.2597 73.5669 34.2597C72.7381 34.2597 72.1936 34.3085 71.9336 34.406C71.6573 34.4547 71.4216 34.5604 71.2266 34.7229C71.0316 34.8854 70.8934 35.0642 70.8122 35.2592C70.7472 35.438 70.7309 35.6249 70.7634 35.8199C70.7959 36.0962 70.926 36.3319 71.1535 36.5269C71.381 36.7219 71.7061 36.8032 72.1286 36.7707C72.7462 36.7219 73.6482 36.2262 74.8346 35.2836ZM83.0048 25.191C82.9398 25.256 82.9073 25.4266 82.9073 25.7029L82.8829 26.9218L84.6869 26.8974V29.701H82.8829V39.5011H79.665V29.701H78.6654V26.8974H79.665C79.6812 25.5323 79.7056 24.7115 79.7381 24.4352C79.8194 23.7689 80.1038 23.2407 80.5913 22.8506C81.0789 22.4606 81.7534 22.2656 82.6147 22.2656C83.2323 22.2656 83.9149 22.4037 84.6625 22.68L84.8088 22.7287V25.2641L84.565 25.191C83.7687 24.9634 83.2486 24.9634 83.0048 25.191Z" fill="white"/>
</svg>
