<svg version="1.2" xmlns="http://www.w3.org/2000/svg" viewBox="0 0 112 44" width="112" height="44">
	<title>Rectangle 344-svg</title>
	<style>
		.s0 { fill: none;stroke: #ffffff;stroke-width: 2 } 
		.s1 { fill: #ffffff } 
	</style>
	<path id="Layer" class="s0" d="m1 22c0-11.6 9.4-21 21-21h68c11.6 0 21 9.4 21 21 0 11.6-9.4 21-21 21h-68c-11.6 0-21-9.4-21-21z"/>
	<path id="Layer" class="s1" d="m91.1 23.1c0.5-0.6 0.5-1.6 0-2.2l-9.6-9.5c-0.6-0.6-1.5-0.6-2.1 0-0.6 0.6-0.6 1.5 0 2.1l8.5 8.5-8.5 8.5c-0.6 0.6-0.6 1.5 0 2.1 0.6 0.6 1.5 0.6 2.1 0zm-71 0.4h70v-3h-70z"/>
</svg>