<svg version="1.2" xmlns="http://www.w3.org/2000/svg" viewBox="0 0 112 44" width="112" height="44">
	<title>Rectangle 344-svg</title>
	<style>
		.s0 { fill: none;stroke: #ffffff;stroke-width: 2 } 
		.s1 { fill: #ffffff } 
	</style>
	<path id="Layer" class="s0" d="m1 22c0-11.6 9.4-21 21-21h68c11.6 0 21 9.4 21 21 0 11.6-9.4 21-21 21h-68c-11.6 0-21-9.4-21-21z"/>
	<path id="Layer" class="s1" d="m20.9 20.9c-0.5 0.6-0.5 1.6 0 2.2l9.6 9.5c0.6 0.6 1.5 0.6 2.1 0 0.6-0.6 0.6-1.5 0-2.1l-8.5-8.5 8.5-8.5c0.6-0.6 0.6-1.5 0-2.1-0.6-0.6-1.5-0.6-2.1 0zm71-0.4h-70v3h70z"/>
</svg>