<svg width="22" height="24" viewBox="0 0 22 24" fill="none" xmlns="http://www.w3.org/2000/svg">
<rect x="2.15088" y="7.45264" width="17.9245" height="13.6226" rx="2.15094" fill="#EAE2F4"/>
<path d="M21.5093 7.09424H0.716797V22.1508C0.716797 22.9428 1.3588 23.5848 2.15076 23.5848H20.0753C20.8672 23.5848 21.5093 22.9428 21.5093 22.1508V7.09424Z" stroke="#5D5B5C" stroke-width="0.716981"/>
<path d="M5.73584 4.40566V1.53774C5.73584 1.24075 5.97659 1 6.27358 1C6.57056 1 6.81131 1.24075 6.81131 1.53774V4.40566C6.81131 4.70264 6.57056 4.9434 6.27358 4.9434C5.97659 4.9434 5.73584 4.70264 5.73584 4.40566Z" stroke="#5D5B5C" stroke-width="0.716981"/>
<path d="M15.0566 4.40566V1.53774C15.0566 1.24075 15.2974 1 15.5944 1C15.8914 1 16.1321 1.24075 16.1321 1.53774V4.40566C16.1321 4.70264 15.8914 4.9434 15.5944 4.9434C15.2974 4.9434 15.0566 4.70264 15.0566 4.40566Z" stroke="#5D5B5C" stroke-width="0.716981"/>
<path d="M0.716797 7.81126V4.58484C0.716797 3.79288 1.3588 3.15088 2.15076 3.15088H20.0753C20.8672 3.15088 21.5093 3.79289 21.5093 4.58484V9.60371" stroke="#5D5B5C" stroke-width="0.716981"/>
<path d="M3.58496 10.3208H17.9246" stroke="#5D5B5C" stroke-width="0.716981"/>
<path d="M3.58496 13.9058H17.9246" stroke="#5D5B5C" stroke-width="0.716981"/>
<path d="M3.58496 16.7734H12.9057" stroke="#5D5B5C" stroke-width="0.716981"/>
</svg>
