<svg width="17" height="23" viewBox="0 0 17 23" fill="none" xmlns="http://www.w3.org/2000/svg">
<path d="M14.4851 10.1924C14.6581 5.33266 10.837 3.52689 8.87249 3.66775C3.80129 3.66775 2.88875 8.16749 3.03294 10.1924C3.03294 13.8587 6.10276 17.3774 7.95822 19.3266C8.39946 19.7902 9.13224 19.8178 9.59713 19.378C11.5346 17.5452 14.3358 14.3852 14.4851 10.1924Z" fill="#EAE2F4" stroke="#EAE2F4" stroke-width="0.716981"/>
<path d="M16.6415 9.84881C16.8795 3.42185 11.6227 1.03371 8.92002 1.22C1.94336 1.22 0.687939 7.17091 0.886302 9.84881C0.886302 14.9016 5.47254 19.7424 7.97519 22.2432C8.41511 22.6827 9.11997 22.7092 9.58457 22.2957C12.2489 19.9249 16.4274 15.629 16.6415 9.84881Z" stroke="#5D5B5C" stroke-width="0.716981"/>
<circle cx="8.75483" cy="9.39594" r="3.19057" fill="white" stroke="#5D5B5C" stroke-width="0.788679"/>
</svg>
