<svg width="131" height="50" viewBox="0 0 131 50" fill="none" xmlns="http://www.w3.org/2000/svg">
<rect x="0.75" y="0.75" width="129.5" height="48.5" rx="4.25" stroke="#67379D" stroke-width="1.5"/>
<line x1="19" y1="18.25" x2="44" y2="18.25" stroke="#67379D" stroke-width="1.5"/>
<line x1="19" y1="25.25" x2="39" y2="25.25" stroke="#67379D" stroke-width="1.5"/>
<line x1="19" y1="32.25" x2="39" y2="32.25" stroke="#67379D" stroke-width="1.5"/>
<path d="M66.6057 32.06L64.2857 19.82L62.2457 29.54C62.1524 29.9933 62.1057 30.3333 62.1057 30.56C62.1057 30.8533 62.219 31.0533 62.4457 31.16C62.6857 31.2533 63.139 31.3267 63.8057 31.38C63.7924 31.4733 63.779 31.58 63.7657 31.7C63.7657 31.8067 63.7524 31.9067 63.7257 32C63.4324 32 63.0657 32 62.6257 32C62.1857 31.9867 61.819 31.98 61.5257 31.98C61.2324 31.98 60.859 31.9867 60.4057 32C59.9524 32 59.5324 32 59.1457 32C59.1457 31.9067 59.1524 31.8067 59.1657 31.7C59.179 31.5933 59.2057 31.4933 59.2457 31.4C59.779 31.3333 60.159 31.2667 60.3857 31.2C60.6257 31.12 60.7924 30.98 60.8857 30.78C60.979 30.58 61.0724 30.2467 61.1657 29.78L63.0857 20.46C63.179 20.0067 63.2257 19.6867 63.2257 19.5C63.2257 19.1933 63.0924 18.9867 62.8257 18.88C62.5724 18.76 62.119 18.6733 61.4657 18.62C61.4657 18.5133 61.4724 18.4133 61.4857 18.32C61.499 18.2133 61.5257 18.1 61.5657 17.98C61.9524 17.98 62.379 17.9867 62.8457 18C63.3124 18.0133 63.6924 18.02 63.9857 18.02C64.2524 18.02 64.5324 18.02 64.8257 18.02C65.119 18.02 65.3857 18.02 65.6257 18.02C65.879 18.0067 66.0524 18 66.1457 18L68.2457 29.04L74.3857 18C74.6657 18.0133 74.979 18.02 75.3257 18.02C75.6724 18.02 75.9524 18.02 76.1657 18.02C76.739 18.02 77.239 18.0133 77.6657 18C78.1057 17.9867 78.5324 17.98 78.9457 17.98C78.9457 18.0867 78.939 18.1933 78.9257 18.3C78.9124 18.4067 78.879 18.5133 78.8257 18.62C78.2657 18.6867 77.859 18.7533 77.6057 18.82C77.3524 18.8867 77.179 19.02 77.0857 19.22C77.0057 19.42 76.919 19.7533 76.8257 20.22L75.1457 29.54C75.0924 29.7933 75.059 30.0067 75.0457 30.18C75.0457 30.34 75.0457 30.4933 75.0457 30.64C75.0457 30.9333 75.1657 31.12 75.4057 31.2C75.659 31.2667 76.1524 31.3267 76.8857 31.38C76.8724 31.4733 76.859 31.58 76.8457 31.7C76.8324 31.8067 76.8057 31.9067 76.7657 32C76.3524 32 75.839 32 75.2257 32C74.6257 31.9867 74.0657 31.98 73.5457 31.98C73.1857 31.98 72.7457 31.9867 72.2257 32C71.7057 32 71.2524 32 70.8657 32C70.8657 31.9067 70.8657 31.8067 70.8657 31.7C70.879 31.5933 70.9057 31.4933 70.9457 31.4C71.519 31.3333 71.9257 31.26 72.1657 31.18C72.4057 31.1 72.5657 30.96 72.6457 30.76C72.739 30.5467 72.8257 30.22 72.9057 29.78L74.8057 19.14L67.6657 31.98C67.5724 32.0067 67.4057 32.0267 67.1657 32.04C66.939 32.0667 66.7524 32.0733 66.6057 32.06ZM86.8552 24.04C86.8552 24.56 86.6886 25.0267 86.3552 25.44C86.0219 25.84 85.5686 26.1867 84.9952 26.48C84.4352 26.7733 83.8086 27.0133 83.1152 27.2C82.4219 27.3867 81.7152 27.52 80.9952 27.6C80.9152 28.0133 80.8752 28.4 80.8752 28.76C80.8752 29.4267 81.0219 29.96 81.3152 30.36C81.6086 30.7467 82.0819 30.94 82.7352 30.94C83.3086 30.94 83.8486 30.7867 84.3552 30.48C84.8619 30.1733 85.3086 29.7733 85.6952 29.28C85.9086 29.4 86.0619 29.5267 86.1552 29.66C85.7019 30.4333 85.1486 31.06 84.4952 31.54C83.8419 32.0067 83.0619 32.24 82.1552 32.24C81.1019 32.24 80.2686 31.9267 79.6552 31.3C79.0552 30.66 78.7552 29.8067 78.7552 28.74C78.7552 27.9933 78.9019 27.2467 79.1952 26.5C79.4886 25.7533 79.8952 25.0733 80.4152 24.46C80.9486 23.8333 81.5752 23.3333 82.2952 22.96C83.0286 22.5867 83.8219 22.4 84.6752 22.4C85.4219 22.4 85.9686 22.5467 86.3152 22.84C86.6752 23.1333 86.8552 23.5333 86.8552 24.04ZM81.1552 26.9C81.7819 26.82 82.3819 26.6733 82.9552 26.46C83.5419 26.2333 84.0219 25.94 84.3952 25.58C84.7686 25.2067 84.9552 24.7533 84.9552 24.22C84.9552 23.9267 84.8886 23.6933 84.7552 23.52C84.6219 23.3333 84.4086 23.24 84.1152 23.24C83.7019 23.24 83.3019 23.42 82.9152 23.78C82.5286 24.1267 82.1819 24.58 81.8752 25.14C81.5686 25.7 81.3286 26.2867 81.1552 26.9ZM90.861 28.36L90.021 32H88.021L89.661 24.9C89.7543 24.5133 89.801 24.26 89.801 24.14C89.801 23.82 89.681 23.66 89.441 23.66C89.2543 23.66 89.0077 23.7667 88.701 23.98C88.4077 24.18 88.1143 24.4333 87.821 24.74C87.7277 24.6733 87.641 24.6067 87.561 24.54C87.4943 24.4733 87.4277 24.4 87.361 24.32C87.8943 23.6933 88.441 23.2267 89.001 22.92C89.5743 22.6 90.1077 22.44 90.601 22.44C91.0543 22.44 91.3743 22.5533 91.561 22.78C91.7477 23.0067 91.841 23.2733 91.841 23.58C91.841 23.74 91.8143 23.9333 91.761 24.16C91.721 24.3733 91.681 24.6 91.641 24.84H91.701C92.2077 24.0267 92.801 23.42 93.481 23.02C94.1743 22.6067 94.841 22.4 95.481 22.4C96.121 22.4 96.6077 22.58 96.941 22.94C97.2877 23.2867 97.461 23.7133 97.461 24.22C97.461 24.5 97.4077 24.8733 97.301 25.34C97.2077 25.8067 97.0877 26.3067 96.941 26.84C96.7943 27.3733 96.6477 27.9 96.501 28.42C96.3543 28.9267 96.2277 29.38 96.121 29.78C96.0277 30.1667 95.981 30.44 95.981 30.6C95.981 30.6933 96.0077 30.78 96.061 30.86C96.1143 30.94 96.2077 30.98 96.341 30.98C96.5677 30.98 96.8543 30.86 97.201 30.62C97.5477 30.38 97.861 30.0867 98.141 29.74C98.3143 29.86 98.4677 29.9933 98.601 30.14C98.1477 30.74 97.6543 31.24 97.121 31.64C96.601 32.04 96.021 32.24 95.381 32.24C94.8877 32.24 94.5277 32.12 94.301 31.88C94.0743 31.6267 93.961 31.3133 93.961 30.94C93.961 30.6733 94.0077 30.32 94.101 29.88C94.2077 29.44 94.3343 28.96 94.481 28.44C94.6277 27.92 94.7677 27.4067 94.901 26.9C95.0477 26.38 95.1677 25.9067 95.261 25.48C95.3677 25.0533 95.421 24.72 95.421 24.48C95.421 24.2133 95.361 23.9933 95.241 23.82C95.121 23.6467 94.9077 23.56 94.601 23.56C94.2143 23.56 93.781 23.7267 93.301 24.06C92.821 24.3933 92.361 24.9 91.921 25.58C91.4943 26.26 91.1543 27.1333 90.901 28.2L90.861 28.36ZM106.796 25.82L107.496 22.82C107.816 22.7933 108.142 22.7667 108.476 22.74C108.809 22.7 109.136 22.66 109.456 22.62L109.516 22.7L107.876 29.78C107.862 29.8733 107.836 29.9933 107.796 30.14C107.756 30.2867 107.736 30.4267 107.736 30.56C107.736 30.68 107.762 30.78 107.816 30.86C107.869 30.94 107.962 30.98 108.096 30.98C108.322 30.98 108.609 30.86 108.956 30.62C109.302 30.38 109.616 30.0867 109.896 29.74C110.069 29.86 110.222 29.9933 110.356 30.14C109.902 30.74 109.409 31.24 108.876 31.64C108.356 32.04 107.776 32.24 107.136 32.24C106.642 32.24 106.289 32.12 106.076 31.88C105.862 31.6267 105.756 31.3133 105.756 30.94C105.756 30.5667 105.829 30.1533 105.976 29.7H105.876C105.342 30.58 104.776 31.2267 104.176 31.64C103.576 32.04 102.942 32.24 102.276 32.24C101.596 32.24 101.082 32.0533 100.736 31.68C100.402 31.2933 100.236 30.8267 100.236 30.28C100.236 29.9867 100.276 29.62 100.356 29.18C100.449 28.7267 100.556 28.2533 100.676 27.76C100.809 27.2533 100.936 26.76 101.056 26.28C101.189 25.8 101.296 25.3733 101.376 25C101.469 24.6133 101.516 24.32 101.516 24.12C101.516 23.8133 101.396 23.66 101.156 23.66C100.969 23.66 100.722 23.7667 100.416 23.98C100.122 24.18 99.8289 24.4333 99.5355 24.74C99.4422 24.6733 99.3555 24.6067 99.2755 24.54C99.2089 24.4733 99.1422 24.4 99.0755 24.32C99.6089 23.6933 100.156 23.2267 100.716 22.92C101.289 22.6 101.822 22.44 102.316 22.44C102.769 22.44 103.089 22.56 103.276 22.8C103.462 23.04 103.556 23.34 103.556 23.7C103.556 24.0467 103.489 24.5067 103.356 25.08C103.236 25.6533 103.089 26.26 102.916 26.9C102.742 27.54 102.589 28.1467 102.456 28.72C102.336 29.28 102.276 29.7267 102.276 30.06C102.276 30.3267 102.336 30.56 102.456 30.76C102.576 30.9467 102.782 31.04 103.076 31.04C103.449 31.04 103.869 30.86 104.336 30.5C104.802 30.14 105.256 29.5733 105.696 28.8C106.149 28.0267 106.516 27.0333 106.796 25.82Z" fill="#6F24C3"/>
</svg>
