<svg width="22" height="25" viewBox="0 0 22 25" fill="none" xmlns="http://www.w3.org/2000/svg">
<rect x="1.43408" y="3.396" width="18.6415" height="21.5094" rx="2.15094" fill="#EAE2F4"/>
<circle cx="6.04962" cy="5.90558" r="3.69693" fill="white" stroke="#5D5B5C" stroke-width="0.67217"/>
<circle cx="15.1237" cy="4.22525" r="3.36085" fill="white" stroke="#5D5B5C" stroke-width="0.67217"/>
<path d="M11.1562 10.3513C11.284 9.53334 11.9886 8.93032 12.8165 8.93032H18.1029C18.9308 8.93032 19.6354 9.53334 19.7632 10.3513L20.8134 17.073C20.9727 18.0922 20.1847 19.0129 19.1532 19.0129H11.7662C10.7347 19.0129 9.94669 18.0922 10.1059 17.073L11.1562 10.3513Z" fill="white" stroke="#5D5B5C" stroke-width="0.67217"/>
<path d="M1.47906 12.4418C1.57361 11.5908 2.29294 10.9469 3.1492 10.9469H8.94985C9.80611 10.9469 10.5254 11.5908 10.62 12.4418L11.5162 20.5078C11.6268 21.5032 10.8476 22.3738 9.84608 22.3738H2.25298C1.25142 22.3738 0.472226 21.5032 0.582829 20.5078L1.47906 12.4418Z" fill="white" stroke="#5D5B5C" stroke-width="0.67217"/>
</svg>
