<svg width="139" height="60" viewBox="0 0 139 60" fill="none" xmlns="http://www.w3.org/2000/svg">
<path d="M16.1476 44V43.8233L31.2676 14.7222H25.2196C23.4262 14.7222 21.9796 15.0233 20.88 15.6255C19.7934 16.2145 18.9556 17.0458 18.3665 18.1193C17.7905 19.1796 17.3716 20.4102 17.1098 21.8109H16.9331V14.5455H38.1403V14.7222L23.0203 43.8233H30.2269C32.0203 43.8233 33.4603 43.5156 34.5469 42.9004C35.6465 42.2851 36.4909 41.3884 37.08 40.2102C37.6691 39.032 38.0945 37.6116 38.3563 35.9491H38.5134V44H16.1476ZM54.7245 44.3927C52.6299 44.3927 50.7579 44.0131 49.1085 43.2538C47.459 42.4945 46.0583 41.4276 44.9063 40.0531C43.7543 38.6785 42.8707 37.0749 42.2554 35.2422C41.6532 33.4095 41.3521 31.4196 41.3521 29.2727C41.3521 27.1258 41.6729 25.136 42.3143 23.3033C42.9558 21.4705 43.8656 19.8669 45.0438 18.4924C46.2219 17.1178 47.6292 16.0509 49.2656 15.2916C50.9019 14.5324 52.7216 14.1527 54.7245 14.1527C56.7143 14.1527 58.5274 14.5324 60.1638 15.2916C61.8001 16.0509 63.2074 17.1178 64.3856 18.4924C65.5638 19.8669 66.467 21.4705 67.0954 23.3033C67.7368 25.136 68.0576 27.1258 68.0576 29.2727C68.0576 31.4196 67.7565 33.4095 67.1543 35.2422C66.5521 37.0749 65.675 38.6785 64.523 40.0531C63.3841 41.4276 61.9834 42.4945 60.3208 43.2538C58.6714 44.0131 56.8059 44.3927 54.7245 44.3927ZM54.7245 44.2356C56.0859 44.2356 57.1921 43.8429 58.043 43.0575C58.8939 42.272 59.5485 41.192 60.0067 39.8175C60.4649 38.4298 60.7725 36.8327 60.9296 35.0262C61.0998 33.2196 61.1849 31.3018 61.1849 29.2727C61.1849 27.2436 61.0801 25.3258 60.8707 23.5193C60.6743 21.7127 60.3339 20.1222 59.8496 18.7476C59.3652 17.36 58.7041 16.2735 57.8663 15.488C57.0416 14.7025 55.9943 14.3098 54.7245 14.3098C53.4547 14.3098 52.4009 14.7025 51.563 15.488C50.7252 16.2735 50.0641 17.36 49.5798 18.7476C49.0954 20.1222 48.7485 21.7127 48.539 23.5193C48.3296 25.3258 48.2249 27.2436 48.2249 29.2727C48.2249 31.3018 48.3099 33.2196 48.4801 35.0262C48.6503 36.8327 48.9645 38.4298 49.4227 39.8175C49.8809 41.192 50.5354 42.272 51.3863 43.0575C52.2503 43.8429 53.363 44.2356 54.7245 44.2356ZM70.3627 44V43.8233H73.8972V14.7222H70.3627V14.5455H92.7678V22.5964H92.6107C92.4143 21.1956 91.9627 19.8996 91.2558 18.7084C90.562 17.504 89.6391 16.5418 88.4871 15.8218C87.3482 15.0887 86.0129 14.7222 84.4812 14.7222H79.9845V43.8233H84.0885C85.882 43.8233 87.4005 43.4502 88.6442 42.704C89.9009 41.9578 90.8892 40.9302 91.6092 39.6211C92.3423 38.312 92.8071 36.8262 93.0034 35.1636H93.1605V44H70.3627ZM86.5234 33.6713C86.3271 32.7942 85.9605 31.9891 85.4238 31.256C84.8871 30.5229 84.2587 29.9404 83.5387 29.5084C82.8187 29.0633 82.0856 28.8407 81.3394 28.8407H78.4136V28.6836H81.3394C82.0856 28.6836 82.8187 28.4807 83.5387 28.0749C84.2587 27.6691 84.8871 27.1193 85.4238 26.4255C85.9605 25.7185 86.3271 24.9265 86.5234 24.0495H86.6805V33.6713H86.5234ZM95.8667 26.3273V26.1505C97.1103 26.1505 98.2427 25.9215 99.2637 25.4633C100.285 24.992 101.136 24.3375 101.816 23.4996C102.51 22.6618 102.988 21.6865 103.25 20.5738C103.512 19.4611 103.512 18.2567 103.25 16.9607H103.328C103.355 17.6153 103.191 18.2305 102.838 18.8065C102.484 19.3825 102.006 19.8538 101.404 20.2204C100.815 20.5738 100.18 20.7505 99.4994 20.7505C98.3736 20.7505 97.4965 20.4036 96.8681 19.7098C96.2528 19.0029 95.9452 18.1847 95.9452 17.2553C95.9452 16.6269 96.1154 16.0444 96.4557 15.5076C96.8092 14.9709 97.2739 14.5455 97.8499 14.2313C98.4259 13.9171 99.0608 13.76 99.7547 13.76C100.462 13.76 101.116 13.9629 101.718 14.3687C102.32 14.7745 102.798 15.3505 103.152 16.0967C103.505 16.8298 103.682 17.7069 103.682 18.728C103.682 20.1287 103.361 21.4051 102.72 22.5571C102.091 23.7091 101.195 24.6255 100.03 25.3062C98.8645 25.9869 97.4768 26.3273 95.8667 26.3273ZM106.84 44.3927V38.2858H107.017C107.344 39.4902 107.861 40.5375 108.568 41.4276C109.275 42.3047 110.126 42.9855 111.121 43.4698C112.129 43.9542 113.235 44.1964 114.439 44.1964C115.29 44.1964 116.036 44.0785 116.678 43.8429C117.319 43.6073 117.823 43.2669 118.19 42.8218C118.569 42.3636 118.759 41.8073 118.759 41.1527C118.759 40.4196 118.478 39.8436 117.915 39.4247C117.365 38.9927 116.652 38.6327 115.775 38.3447C114.897 38.0567 113.968 37.7556 112.986 37.4415C112.004 37.1273 111.075 36.7345 110.198 36.2633C109.321 35.7789 108.607 35.1375 108.057 34.3389C107.508 33.5404 107.233 32.4996 107.233 31.2167C107.233 30.1825 107.481 29.24 107.979 28.3891C108.476 27.5382 109.177 26.8575 110.08 26.3469C110.983 25.8364 112.057 25.5811 113.3 25.5811C114.23 25.5811 115.068 25.7316 115.814 26.0327C116.56 26.3338 117.215 26.7265 117.777 27.2109L120.134 25.5418H120.291V31.04H120.114C119.774 30.1236 119.296 29.2662 118.681 28.4676C118.079 27.656 117.332 27.0015 116.442 26.504C115.552 26.0065 114.511 25.7578 113.32 25.7578C112.587 25.7578 111.952 25.8691 111.415 26.0916C110.892 26.3011 110.479 26.6022 110.178 26.9949C109.89 27.3745 109.746 27.8131 109.746 28.3105C109.746 29.0175 110.034 29.5869 110.61 30.0189C111.186 30.4509 111.926 30.8305 112.829 31.1578C113.732 31.472 114.688 31.7927 115.696 32.12C116.717 32.4473 117.679 32.8531 118.583 33.3375C119.486 33.8218 120.225 34.4567 120.801 35.2422C121.377 36.0145 121.665 37.0095 121.665 38.2269C121.665 39.5884 121.325 40.7273 120.644 41.6436C119.964 42.56 119.08 43.2473 117.993 43.7055C116.92 44.1636 115.781 44.3927 114.577 44.3927C113.543 44.3927 112.587 44.2291 111.71 43.9018C110.846 43.5745 110.073 43.1098 109.393 42.5076L106.997 44.3927H106.84Z" fill="#343233"/>
<path d="M40.6118 15.6985L44.5292 15.6986L29.2548 45.0196L25.0497 45.0196L40.6118 15.6985Z" fill="#B190D6"/>
</svg>
