<svg width="50" height="22" viewBox="0 0 50 22" fill="none" xmlns="http://www.w3.org/2000/svg">
<path d="M5.54921 17.2163V16.9941L10.8968 7.02122H8.85497C8.22067 7.02122 7.71601 7.11382 7.34099 7.29902C6.9706 7.48421 6.68817 7.75275 6.49371 8.10462C6.30389 8.45187 6.16267 8.87319 6.07008 9.36859H5.84089V6.79898H13.3275V7.02122L7.97992 16.9941H10.4384C11.0681 16.9941 11.5681 16.8992 11.9385 16.7093C12.3135 16.5149 12.5983 16.2232 12.7927 15.8343C12.9872 15.4454 13.1307 14.9569 13.2233 14.3689H13.4455V17.2163H5.54921ZM19.3358 17.3552C18.595 17.3552 17.9329 17.2209 17.3495 16.9524C16.7662 16.6839 16.2708 16.3065 15.8633 15.8204C15.4559 15.3342 15.1457 14.7671 14.9327 14.1189C14.7197 13.4707 14.6133 12.767 14.6133 12.0076C14.6133 11.2483 14.7244 10.5446 14.9466 9.8964C15.1735 9.24821 15.4953 8.68105 15.9119 8.19491C16.3286 7.70876 16.8264 7.33143 17.4051 7.06289C17.9838 6.79436 18.6274 6.66009 19.3358 6.66009C20.0395 6.66009 20.6808 6.79436 21.2595 7.06289C21.8382 7.33143 22.336 7.70876 22.7527 8.19491C23.1694 8.68105 23.4888 9.24821 23.7111 9.8964C23.9379 10.5446 24.0514 11.2483 24.0514 12.0076C24.0514 12.767 23.9449 13.4707 23.7319 14.1189C23.5189 14.7671 23.2087 15.3342 22.8013 15.8204C22.3938 16.3065 21.8984 16.6839 21.3151 16.9524C20.7317 17.2209 20.0719 17.3552 19.3358 17.3552ZM19.3358 17.1469C19.8173 17.1469 20.2085 17.0172 20.5095 16.7579C20.8104 16.494 21.0419 16.1283 21.2039 15.6607C21.366 15.1884 21.4771 14.6421 21.5373 14.0217C21.5975 13.3966 21.6276 12.7253 21.6276 12.0076C21.6276 11.29 21.5905 10.621 21.5165 10.0006C21.4424 9.37554 21.3197 8.82921 21.1484 8.36158C20.9771 7.88933 20.7433 7.52357 20.447 7.26429C20.1553 7.00039 19.7849 6.86843 19.3358 6.86843C18.8867 6.86843 18.514 7.00039 18.2177 7.26429C17.9213 7.52357 17.6875 7.88933 17.5162 8.36158C17.3449 8.82921 17.2222 9.37554 17.1481 10.0006C17.0741 10.621 17.037 11.29 17.037 12.0076C17.037 12.7253 17.0671 13.3966 17.1273 14.0217C17.1875 14.6421 17.2986 15.1861 17.4607 15.6537C17.6227 16.1213 17.8542 16.4871 18.1551 16.751C18.4561 17.0149 18.8496 17.1469 19.3358 17.1469ZM24.9953 17.2163V16.9941H26.2454V7.02122H24.9953V6.79898H32.9611V9.64639H32.7389C32.6694 9.15099 32.5189 8.70651 32.2874 8.31297C32.0559 7.9148 31.7434 7.59996 31.3499 7.36847C30.961 7.13697 30.4957 7.02122 29.954 7.02122H28.4052V16.9941H29.8151C30.4494 16.9941 30.9795 16.876 31.4054 16.6399C31.836 16.3991 32.1717 16.0611 32.4124 15.6259C32.6532 15.1907 32.8083 14.6791 32.8778 14.0911H33.1V17.2163H24.9953ZM30.5859 13.5633C30.5165 13.2531 30.3938 12.9753 30.2179 12.7299C30.0419 12.4845 29.8336 12.2924 29.5928 12.1535C29.3521 12.01 29.1021 11.9382 28.8428 11.9382H28.0024V11.716H28.8428C29.1021 11.716 29.3521 11.6511 29.5928 11.5215C29.8336 11.3919 30.0419 11.2113 30.2179 10.9798C30.3938 10.7437 30.5165 10.4705 30.5859 10.1603H30.8082V13.5633H30.5859ZM34.1091 10.9867V10.7576C34.498 10.7576 34.8545 10.6881 35.1786 10.5492C35.5073 10.4103 35.7851 10.2136 36.012 9.95891C36.2435 9.70426 36.4124 9.401 36.5189 9.04913C36.6254 8.69262 36.6463 8.29908 36.5814 7.8685H36.6578C36.6671 8.04906 36.6115 8.22732 36.4912 8.40325C36.3754 8.57456 36.2203 8.71577 36.0258 8.82689C35.8314 8.93801 35.6207 8.99357 35.3939 8.99357C34.9957 8.99357 34.6855 8.87088 34.4632 8.62549C34.2456 8.37547 34.1368 8.0861 34.1368 7.75738C34.1368 7.53514 34.197 7.32911 34.3174 7.13928C34.4424 6.94946 34.6068 6.79899 34.8105 6.68787C35.0142 6.57675 35.2388 6.52119 35.4841 6.52119C35.7342 6.52119 35.9657 6.59295 36.1786 6.73648C36.3916 6.87538 36.5606 7.07447 36.6856 7.33374C36.8106 7.59302 36.8731 7.90322 36.8731 8.26436C36.8731 8.76902 36.7597 9.22738 36.5328 9.63944C36.3106 10.0469 35.9934 10.3733 35.5814 10.6187C35.1693 10.8641 34.6785 10.9867 34.1091 10.9867ZM37.9692 17.3552V15.1676H38.1915C38.3257 15.5704 38.5086 15.9176 38.7401 16.2093C38.9762 16.501 39.254 16.7255 39.5735 16.883C39.893 17.0404 40.2425 17.1191 40.6222 17.1191C40.9 17.1191 41.1477 17.082 41.3653 17.008C41.5875 16.9293 41.7611 16.8181 41.8861 16.6746C42.0111 16.5311 42.0736 16.3528 42.0736 16.1399C42.0736 15.8945 41.9787 15.7 41.7889 15.5565C41.5991 15.4083 41.3537 15.2833 41.0527 15.1815C40.7564 15.0796 40.4393 14.9731 40.1013 14.862C39.7679 14.7462 39.4485 14.605 39.1429 14.4384C38.842 14.267 38.5966 14.0425 38.4067 13.7647C38.2169 13.4869 38.122 13.1258 38.122 12.6813C38.122 12.3155 38.2077 11.9845 38.379 11.6882C38.5549 11.3872 38.8026 11.1488 39.1221 10.9729C39.4415 10.7923 39.8189 10.702 40.2541 10.702C40.5736 10.702 40.8629 10.7553 41.1222 10.8617C41.3861 10.9636 41.6176 11.0979 41.8167 11.2645L42.5528 10.6881H42.7473V12.6327H42.5251C42.4047 12.3364 42.2426 12.0609 42.0389 11.8062C41.8398 11.547 41.5921 11.3386 41.2958 11.1812C41.0041 11.0192 40.6615 10.9381 40.268 10.9381C40.0457 10.9381 39.8467 10.9752 39.6707 11.0493C39.4994 11.1187 39.3605 11.2182 39.254 11.3479C39.1522 11.4729 39.1012 11.6187 39.1012 11.7854C39.1012 12.0123 39.2008 12.1975 39.3999 12.341C39.599 12.4845 39.8536 12.6119 40.1638 12.723C40.474 12.8295 40.8004 12.9406 41.143 13.0563C41.4903 13.1674 41.819 13.3087 42.1292 13.48C42.4394 13.6513 42.6917 13.8735 42.8862 14.1467C43.0853 14.4198 43.1848 14.7694 43.1848 15.1953C43.1848 15.6769 43.0644 16.0773 42.8237 16.3968C42.5876 16.7163 42.2797 16.957 41.9 17.1191C41.525 17.2765 41.1268 17.3552 40.7055 17.3552C40.349 17.3552 40.0203 17.2973 39.7193 17.1816C39.4184 17.0658 39.1499 16.9038 38.9137 16.6954L38.1637 17.3552H37.9692Z" fill="#343233"/>
<path d="M14.6567 6.66569L16.0705 6.66572L10.5581 17.2474L9.04046 17.2474L14.6567 6.66569Z" fill="#B190D6"/>
</svg>
