<svg width="125" height="55" viewBox="0 0 125 55" fill="none" xmlns="http://www.w3.org/2000/svg">
<path d="M14.82 39.7739V39.5986L28.3202 13.6502H22.9377C21.3363 13.6502 20.0448 13.919 19.0629 14.4567C18.0928 14.9827 17.3447 15.719 16.8187 16.6658C16.3045 17.6126 15.9304 18.7113 15.6966 19.9619H15.5389V13.4748H34.4567V13.6502L20.9565 39.5986H27.391C28.9923 39.5986 30.278 39.3239 31.2482 38.7746C32.23 38.2252 32.9781 37.4304 33.4924 36.3901C34.0183 35.3381 34.3982 34.0699 34.632 32.5855H34.7898V39.7739H14.82ZM49.2984 40.1246C47.4399 40.1246 45.7685 39.7856 44.284 39.1077C42.8113 38.4298 41.5606 37.4771 40.532 36.2498C39.5034 35.0226 38.7203 33.5907 38.1826 31.9543C37.645 30.3179 37.3761 28.5413 37.3761 26.6244C37.3761 24.7075 37.6567 22.9308 38.2177 21.2944C38.7904 19.658 39.6028 18.2262 40.6548 16.9989C41.7184 15.7716 42.9808 14.819 44.4418 14.1411C45.9029 13.4632 47.5217 13.1242 49.2984 13.1242C51.0867 13.1242 52.7056 13.4632 54.1549 14.1411C55.616 14.819 56.8725 15.7716 57.9245 16.9989C58.9881 18.2262 59.8005 19.658 60.3615 21.2944C60.9343 22.9308 61.2206 24.7075 61.2206 26.6244C61.2206 28.5413 60.9518 30.3179 60.4141 31.9543C59.8765 33.5907 59.0933 35.0226 58.0647 36.2498C57.0362 37.4771 55.7855 38.4298 54.3127 39.1077C52.84 39.7856 51.1685 40.1246 49.2984 40.1246ZM49.2984 39.9668C50.5257 39.9668 51.5134 39.6161 52.2614 38.9148C53.0212 38.2135 53.6056 37.2492 54.0147 36.0219C54.4238 34.7829 54.7043 33.3628 54.8563 31.7615C55.0082 30.1485 55.0842 28.4361 55.0842 26.6244C55.0842 24.8127 54.9907 23.1062 54.8037 21.5048C54.6283 19.8918 54.3244 18.4717 53.892 17.2444C53.4595 16.0054 52.8692 15.0353 52.1212 14.3339C51.3731 13.6326 50.4322 13.282 49.2984 13.282C48.1763 13.282 47.2354 13.6326 46.4756 14.3339C45.7276 15.0353 45.1373 16.0054 44.7048 17.2444C44.2723 18.4717 43.9626 19.8918 43.7756 21.5048C43.6003 23.1062 43.5126 24.8127 43.5126 26.6244C43.5126 28.4361 43.5886 30.1485 43.7405 31.7615C43.8925 33.3745 44.173 34.7946 44.5821 36.0219C44.9912 37.2492 45.5756 38.2135 46.3354 38.9148C47.0951 39.6161 48.0828 39.9668 49.2984 39.9668ZM63.2955 39.7739V39.5986H66.4514V13.6502H63.2955V13.4748H83.3179V20.6633H83.1426C82.9672 19.4126 82.5698 18.2554 81.9503 17.1918C81.3309 16.1281 80.5068 15.2749 79.4782 14.632C78.4613 13.9774 77.2691 13.6502 75.9016 13.6502H71.9041V39.5986H75.5509C77.1522 39.5986 78.5081 39.2655 79.6185 38.5992C80.7406 37.933 81.6231 37.0213 82.2659 35.8641C82.9088 34.6953 83.3179 33.3686 83.4932 31.8842H83.6686V39.7739H63.2955ZM77.7074 30.5517C77.5321 29.7686 77.2048 29.0497 76.7256 28.3952C76.2581 27.7406 75.7029 27.2205 75.06 26.8348C74.4171 26.4491 73.7626 26.2562 73.0963 26.2562H70.5015V26.0809H73.0963C73.7626 26.0809 74.4171 25.9055 75.06 25.5549C75.7029 25.1925 76.2581 24.7016 76.7256 24.0821C77.2048 23.451 77.5321 22.7438 77.7074 21.9607H77.8828V30.5517H77.7074ZM86.0672 23.9945V23.8191C87.1776 23.8191 88.1829 23.6146 89.0829 23.2055C89.9946 22.7847 90.7543 22.2061 91.3621 21.4698C91.9699 20.7334 92.3907 19.8743 92.6245 18.8925C92.8699 17.8989 92.8758 16.8236 92.642 15.6664H92.7121C92.7355 16.2392 92.5894 16.7827 92.2738 17.297C91.9699 17.8113 91.5491 18.2262 91.0115 18.5418C90.4855 18.8574 89.9186 19.0152 89.3108 19.0152C88.3056 19.0152 87.5225 18.7054 86.9614 18.0859C86.4121 17.4548 86.1374 16.7242 86.1374 15.8944C86.1374 15.3333 86.2893 14.8132 86.5932 14.3339C86.9088 13.8547 87.3238 13.4748 87.838 13.1943C88.3523 12.9138 88.9192 12.7735 89.5387 12.7735C90.1699 12.7735 90.7543 12.9547 91.292 13.317C91.8297 13.6794 92.2563 14.1937 92.5719 14.8599C92.8875 15.5145 93.0453 16.2976 93.0453 17.2093C93.0453 18.46 92.7589 19.5996 92.1862 20.6282C91.6251 21.6568 90.8245 22.475 89.7842 23.0828C88.7439 23.6906 87.5049 23.9945 86.0672 23.9945ZM95.865 40.1246V34.6719H96.0403C96.3326 35.7356 96.7943 36.6648 97.4254 37.4596C98.0566 38.2427 98.8164 38.8505 99.7047 39.283C100.593 39.7155 101.575 39.9317 102.65 39.9317C103.398 39.9317 104.059 39.8265 104.631 39.6161C105.204 39.4057 105.654 39.1018 105.981 38.7044C106.32 38.2953 106.49 37.8044 106.49 37.2317C106.49 36.5771 106.239 36.0628 105.736 35.6888C105.245 35.3031 104.608 34.9816 103.825 34.7245C103.053 34.4557 102.229 34.1868 101.353 33.918C100.476 33.6375 99.6462 33.2868 98.8631 32.866C98.08 32.4336 97.443 31.8608 96.9521 31.1478C96.4611 30.4348 96.2157 29.5056 96.2157 28.3601C96.2157 27.4367 96.4378 26.5952 96.8819 25.8354C97.3261 25.0757 97.9514 24.4679 98.7579 24.012C99.5644 23.5562 100.523 23.3282 101.633 23.3282C102.463 23.3282 103.211 23.4626 103.877 23.7315C104.544 24.0003 105.128 24.351 105.631 24.7834L107.717 23.2932H107.875V28.2023H107.7C107.396 27.3841 106.969 26.6185 106.42 25.9055C105.882 25.1925 105.216 24.614 104.421 24.1698C103.638 23.7256 102.714 23.5036 101.651 23.5036C100.996 23.5036 100.429 23.6029 99.9501 23.8016C99.4826 23.9886 99.1203 24.2575 98.8631 24.6081C98.606 24.9471 98.4774 25.3387 98.4774 25.7828C98.4774 26.414 98.7345 26.9224 99.2488 27.3082C99.7631 27.6939 100.424 28.027 101.23 28.3075C102.037 28.588 102.89 28.8744 103.79 29.1666C104.69 29.4588 105.543 29.8212 106.35 30.2537C107.156 30.6861 107.816 31.253 108.331 31.9543C108.845 32.644 109.102 33.5381 109.102 34.6368C109.102 35.8524 108.798 36.8693 108.191 37.6875C107.583 38.494 106.794 39.1018 105.824 39.5109C104.865 39.92 103.848 40.1246 102.773 40.1246C101.85 40.1246 100.996 39.9785 100.213 39.6863C99.4417 39.3941 98.7521 38.9791 98.1443 38.4414L96.0228 40.1246H95.865Z" fill="#343233"/>
<path d="M36.6972 13.8166L40.1949 13.8167L26.5569 39.9965L22.8022 39.9965L36.6972 13.8166Z" fill="#B190D6"/>
</svg>
